******************************************************************************
             An American Werewolf in London =Full Moon Edition= [1981]

Two American tourists in Britain are attacked by a werewolf that none of the locals will admit exists.

Director:
John Landis
Writer:
John Landis
Stars:
David Naughton, Jenny Agutter and Joe Belcher
******************************************************************************
Format                                   : Matroska
Format version                           : Version 2
File size                                : 1.38 GiB
Duration                                 : 1h 37mn
Overall bit rate                         : 2 023 Kbps

Video
Format                                   : AVC
Format/Info                              : Advanced Video Codec
Format profile                           : High@L3.0
Duration                                 : 1h 37mn
Bit rate                                 : 1 534 Kbps
Width                                    : 720 pixels
Height                                   : 464 pixels
Display aspect ratio                     : 1.85:1
Original display aspect ratio            : 1.85:1
Frame rate                               : 23.976 fps
Stream size                              : 1.04 GiB (76%)
Language                                 : English
Default                                  : Yes
Forced                                   : No

Audio
Format                                   : AC-3
Format/Info                              : Audio Coding 3
Duration                                 : 1h 37mn
Bit rate mode                            : Constant
Bit rate                                 : 448 Kbps
Channel(s)                               : 6 channels
Sampling rate                            : 48.0 KHz
Stream size                              : 312 MiB (22%)
Language                                 : English
Default                                  : Yes
Forced                                   : No

*****************************************************************************
Movie MD5:  ED0A1E8D3D31B118D1E3782C329F9B36
----------------------------------------------------------------------------
MD5 Checker for Linux:  http://sinf.gr/en/hashcalc.html
MD5 Checker for Windows:  http://getmd5checker.com/ 
----------------------------------------------------------------------------
 This was personally encoded by me, Carjacker, from the 'Full Moon Edition' DVD.
Leave your thoughts/opinions and ratings on the A/V of this film for others to see. Thanks! 
Pease SEED as you DL so others may also enjoy the movie! 
**Requests are welcome!		